PathFileType	4	(X/Y/Z)	c:/Users/goper/Files/vsCode/490R/osim_files/A04/A04_SSWS_01.trc
DataRate	CameraRate	NumFrames	NumMarkers	Units                	OrigDataRate	OrigDataStartFrame	OrigNumFrames
120.00	120.00	6	36	mm	120.0	763	1220
                Frame#	Time	LPSIS			LASIS			LTH1			LTH2			LTH3			LTH4			LLFE			LMFE			LSH1			LSH2			LSH3			LSH4			LLMAL			LMMAL			LCAL			LMTP5			LTOE			LMTP1			RPSIS			RASIS			RTH1			RTH2			RTH3			RTH4			RLFE			RMFE			RSH1			RSH2			RSH3			RSH4			RLMAL			RMMAL			RCAL			RMTP1			RTOE			RMTP5		
		X1	Y1	Z1	X2	Y2	Z2	X3	Y3	Z3	X4	Y4	Z4	X5	Y5	Z5	X6	Y6	Z6	X7	Y7	Z7	X8	Y8	Z8	X9	Y9	Z9	X10	Y10	Z10	X11	Y11	Z11	X12	Y12	Z12	X13	Y13	Z13	X14	Y14	Z14	X15	Y15	Z15	X16	Y16	Z16	X17	Y17	Z17	X18	Y18	Z18	X19	Y19	Z19	X20	Y20	Z20	X21	Y21	Z21	X22	Y22	Z22	X23	Y23	Z23	X24	Y24	Z24	X25	Y25	Z25	X26	Y26	Z26	X27	Y27	Z27	X28	Y28	Z28	X29	Y29	Z29	X30	Y30	Z30	X31	Y31	Z31	X32	Y32	Z32	X33	Y33	Z33	X34	Y34	Z34	X35	Y35	Z35	X36	Y36	Z36

763	6.35000	-1502.35071	1023.98108	382.79236	-1728.42542	978.00916	457.83502	-1716.16675	638.87787	474.65311	-1735.25293	598.91565	474.72348	-1773.06335	661.57910	473.37985	-1785.40869	618.84967	474.48889	-1783.69604	515.44275	461.71506	-1802.62378	525.59534	323.47684	-1783.47180	406.54651	456.74448	-1804.31360	370.10458	457.08713	-1842.06824	430.99136	450.80759	-1852.84131	388.81696	447.81522	-1880.07031	104.22138	405.97983	-1907.28235	112.40849	324.68735	-1827.57153	59.04184	346.60300	-2024.12366	70.96539	451.13141	-2073.51416	92.17857	392.58527	-2061.76855	75.10744	347.57077	-1496.96558	1010.70380	276.92648	-1713.44690	971.69800	171.84454	-1512.95435	710.91821	147.72589	-1505.04333	668.64374	150.43958	-1571.81360	692.45044	138.09143	-1554.23071	648.75940	143.82774	-1504.53235	516.63983	167.39841	-1518.54431	511.99454	287.14804	-1343.10461	361.20737	179.63432	-1323.16235	318.09845	186.85942	-1396.57104	329.80042	173.84013	-1366.73877	291.95282	178.63475	-1245.32935	140.86308	184.90132	-1276.94788	135.42993	315.81201	-1161.85352	119.21059	263.61807	-1369.07605	50.29544	296.65649	-1393.85925	67.54701	248.06055	-1355.85889	49.37930	174.08980
764	6.35833	-1512.56665	1024.23303	383.32562	-1738.38745	978.05463	458.14557	-1725.49548	639.07550	478.05853	-1744.44641	598.84442	478.04068	-1782.48779	661.39697	477.48141	-1794.61963	618.46838	478.26465	-1792.78772	515.63989	466.02036	-1811.81958	526.53058	327.77338	-1791.21509	408.47253	463.27286	-1811.02588	370.00470	460.21063	-1849.72278	430.24884	454.31396	-1859.79724	387.85455	451.04843	-1882.11621	103.62074	406.53299	-1909.18701	112.00012	325.57462	-1828.63208	59.70546	346.99686	-2025.56140	67.42536	451.48599	-2075.29883	87.76201	393.20258	-2063.06055	71.11029	347.54483	-1507.37329	1010.38379	277.49103	-1724.05505	970.86407	172.44235	-1526.49854	708.32611	148.19620	-1518.68140	666.03149	150.61806	-1585.36243	690.38129	138.45796	-1568.08167	646.55780	143.84727	-1519.95728	513.33728	166.95374	-1533.30798	509.20142	286.84418	-1354.26343	361.96613	179.52588	-1333.66345	320.69504	188.18195	-1406.67944	329.07227	173.65573	-1375.67139	292.15421	178.68617	-1249.54199	145.11609	185.56755	-1281.64111	138.72856	316.76535	-1165.62097	125.58841	264.81815	-1370.78699	50.43538	296.61853	-1395.72461	66.87936	247.83141	-1356.56445	49.52923	174.06700
765	6.36667	-1522.15918	1024.94312	383.60181	-1747.87097	978.71552	458.60986	-1734.09155	639.93182	481.43494	-1752.92822	599.39490	481.86349	-1791.31934	661.74127	481.64563	-1803.07251	618.71912	482.53265	-1801.26819	515.91382	470.12085	-1821.04785	527.76373	331.99338	-1797.51978	408.66504	466.23596	-1816.50781	370.12354	463.36929	-1857.08093	429.39493	457.89621	-1866.13635	387.23383	454.21484	-1883.30054	103.39346	406.80450	-1910.33923	111.92523	325.97348	-1829.31824	60.20582	347.17361	-2026.27393	65.45776	451.97800	-2076.65967	85.29298	394.00296	-2065.22388	70.27219	348.56595	-1517.71484	1010.21484	277.89578	-1734.58325	970.10706	173.30786	-1540.65210	705.44983	148.41597	-1533.21387	663.04724	150.50443	-1599.75623	688.07965	138.68549	-1582.85767	644.05725	143.84401	-1536.51636	509.69626	166.39548	-1548.71448	506.00870	286.33786	-1366.69458	363.78049	179.70578	-1344.36816	322.69485	188.00780	-1417.72607	328.53574	173.44292	-1385.44324	292.68634	178.52246	-1254.36511	150.02393	186.11098	-1286.71973	142.65834	317.56125	-1169.92932	133.08611	265.84366	-1372.62268	50.82802	296.66263	-1397.62585	66.28918	247.52281	-1357.61816	49.84531	174.08794
766	6.37500	-1532.06458	1025.99146	383.87332	-1757.08130	979.75116	459.27719	-1742.26440	641.00433	484.65616	-1760.61682	600.34412	485.66718	-1799.36108	662.35040	485.81735	-1810.82495	619.28857	487.12271	-1809.49451	516.42865	473.91159	-1830.16895	529.01160	335.93939	-1803.77917	409.26974	469.08990	-1822.15027	370.33670	465.84448	-1863.67102	428.90521	461.20526	-1871.89880	386.58383	457.17130	-1882.93250	103.04647	407.13849	-1910.27258	111.57475	326.25443	-1829.14319	59.91283	347.28375	-2025.93762	65.51059	452.25824	-2075.72656	85.87300	394.58432	-2063.96362	70.27120	349.11020	-1527.79138	1010.37775	278.18488	-1744.89648	969.54028	174.32172	-1555.67896	702.06909	148.39967	-1548.90869	659.56927	150.32826	-1615.02686	685.65515	138.73373	-1598.86853	641.31805	143.69789	-1554.21814	505.98502	165.77287	-1565.25989	502.72116	285.68353	-1379.95728	365.26443	179.23665	-1356.18982	324.73901	187.73975	-1429.75891	328.11133	173.10759	-1395.90967	293.43005	178.10135	-1260.02039	155.71806	186.53790	-1292.43201	147.39352	318.04691	-1175.21777	141.75002	266.77271	-1374.52112	51.19440	296.71423	-1399.78943	65.81412	247.02289	-1358.68201	50.39717	174.03682
767	6.38333	-1541.41467	1027.32727	384.03665	-1765.98987	981.18365	460.21964	-1749.84509	642.09814	487.51852	-1767.81506	601.07849	488.80048	-1806.99048	662.93060	490.04883	-1817.78491	619.45087	491.16129	-1817.66577	516.93817	477.34695	-1838.47046	530.09589	339.40958	-1809.96338	409.88016	471.71054	-1827.66150	370.70181	468.24664	-1870.18164	428.48581	464.04974	-1877.69141	386.04572	459.67484	-1882.77637	102.70423	407.51462	-1910.11780	111.82834	326.88242	-1829.12134	59.72527	347.43936	-2025.74463	65.02979	453.02719	-2075.60522	86.03983	395.64740	-2063.84131	70.61922	349.95053	-1537.75012	1010.75494	278.41428	-1755.33435	969.30682	175.65691	-1571.36084	698.42047	148.19646	-1565.35437	655.79749	149.89658	-1631.08130	683.11493	138.86272	-1615.65576	638.51038	143.66615	-1573.10193	502.06821	165.11780	-1582.88062	499.30627	284.94583	-1394.24597	366.99734	178.68340	-1368.95276	327.46259	187.43193	-1442.57068	328.07388	172.66847	-1407.63782	294.57230	177.84772	-1266.46741	162.26060	186.97319	-1299.24219	152.75522	318.55765	-1181.16357	151.69513	267.97388	-1377.30811	52.54356	296.44440	-1402.69836	65.45296	246.51889	-1360.21460	51.25586	174.00397
768	6.39167	-1550.57507	1028.87964	383.97256	-1774.57886	982.82349	461.38385	-1757.36243	642.82373	490.46039	-1774.94238	601.73608	491.41888	-1814.39734	663.14075	493.63120	-1824.82324	619.72241	494.47171	-1825.31201	517.30829	480.54166	-1844.05872	530.90430	344.27310	-1815.81750	410.48676	474.29019	-1832.92480	370.99911	470.45840	-1876.47705	428.16095	466.71640	-1883.16565	385.45984	461.96381	-1882.86499	102.45041	407.70282	-1910.39062	111.66691	327.14377	-1829.18896	59.76042	347.56946	-2025.78967	64.65800	453.15350	-2076.17920	85.92744	395.64044	-2063.82642	70.49747	350.07681	-1547.42908	1011.38391	278.53073	-1765.38574	969.11096	177.07516	-1587.73535	694.18842	148.54694	-1582.67554	651.84253	149.45284	-1647.74426	680.70917	139.28003	-1633.34143	635.71289	143.89687	-1592.91479	498.44641	164.62390	-1602.04822	495.70932	284.13922	-1409.67542	369.06305	178.32872	-1382.92334	330.59991	187.22270	-1456.44751	328.29819	172.33087	-1420.26416	296.24564	177.64523	-1273.98474	169.59686	187.28889	-1306.82251	158.78722	318.95798	-1188.70020	162.47626	268.84341	-1380.40295	53.87973	296.29526	-1405.99158	65.15089	245.91794	-1362.20093	52.60622	173.97711
